<svg width="100" height="2066" viewBox="0 0 100 2066" fill="none" xmlns="http://www.w3.org/2000/svg">
<g clip-path="url(#clip0_778_1808)">
<g clip-path="url(#clip1_778_1808)">
<path d="M51.87 2033.54L51.8179 2033.61L62.1489 2048.5L68.7652 2040.24L51.87 2033.54ZM51.87 2033.54L51.8179 2033.61L62.1489 2048.5L68.7652 2040.24L51.87 2033.54ZM52.4223 1980.6L12.0472 2031.01C5.92577 2038.65 7.15547 2049.78 14.7978 2055.9L63.2535 2094.71C70.8958 2100.83 82.0239 2099.6 88.1453 2091.96L128.52 2041.56C134.642 2033.91 133.412 2022.78 125.77 2016.66L77.3141 1977.85C69.6718 1971.73 58.5437 1972.96 52.4223 1980.6ZM93.0243 2040.08L87.5802 2046.88C87.4304 2047.13 87.0854 2047.23 86.8057 2047.11L76.9298 2043.58L67.2398 2055.68L72.9025 2064.27C73.143 2064.57 73.1298 2064.99 72.8628 2065.25L67.9657 2071.37C67.6792 2071.73 67.4059 2071.67 67.0938 2071.26L45.3348 2036.64C45.0878 2036.28 44.8082 2035.9 44.5221 2035.45C43.9434 2034.78 43.28 2034.14 42.5646 2033.56C42.3759 2033.47 42.3175 2033.21 42.4153 2033.02L49.1618 2024.6C49.3702 2024.34 49.5719 2024.28 49.7606 2024.38L92.7645 2039.34C93.2004 2039.53 93.2848 2039.76 93.0243 2040.08ZM101.393 2028.64C101.751 2028.92 101.809 2029.18 101.575 2029.47L96.4692 2035.85C96.2087 2036.17 95.8834 2036.18 95.5581 2035.92L70.5173 2015.86C70.1921 2015.6 70.1662 2015.37 70.4006 2015.08L75.5582 2008.64C75.7927 2008.34 76.0595 2008.34 76.3522 2008.58L101.393 2028.64ZM71.4799 2005.8C71.6613 2007.17 71.1984 2008.61 70.2477 2009.67C69.4206 2010.77 68.1643 2011.47 66.7912 2011.65C65.379 2011.75 63.9933 2011.28 62.9136 2010.36C61.7819 2009.51 61.0799 2008.25 60.9571 2006.87C60.8342 2005.49 61.2775 2004.14 62.1371 2003.06C63.153 2001.8 64.3247 2001.13 65.6458 2001.02C66.9993 2000.93 68.3526 2001.37 69.3997 2002.26C70.5315 2003.11 71.2921 2004.36 71.4799 2005.8ZM51.8179 2033.61L62.1489 2048.5L68.7652 2040.24L51.87 2033.54L51.8179 2033.61Z" fill="#D9D9D9"/>
</g>
</g>
<defs>
<clipPath id="clip0_778_1808">
<rect width="100" height="2066" fill="white"/>
</clipPath>
<clipPath id="clip1_778_1808">
<rect width="100" height="100" fill="white" transform="translate(0 2044.05) rotate(-51.3058)"/>
</clipPath>
</defs>
</svg>
