<svg width="100" height="1420" viewBox="0 0 100 1420" fill="none" xmlns="http://www.w3.org/2000/svg">
<g clip-path="url(#clip0_778_1810)">
<path d="M43.9257 1357.48C44.6048 1358.55 44.959 1359.82 44.9173 1361.17C44.9173 1363 44.5007 1364.42 43.6257 1365.46C41.6965 1367.76 38.2715 1368.42 35.4173 1368.42H33.209C32.709 1368.42 32.1673 1368.38 31.584 1368.33V1354.33C31.8757 1354.29 32.459 1354.25 33.2923 1354.29C34.084 1354.25 35.0423 1354.25 36.1257 1354.25C38.9965 1354.25 42.2757 1354.89 43.9257 1357.48Z" fill="#D9D9D9"/>
<path d="M82.2917 1321.25H17.7083C7.91667 1321.25 0 1329.17 0 1338.96V1401.04C0 1410.83 7.91667 1418.75 17.7083 1418.75H82.2917C92.0833 1418.75 100 1410.83 100 1401.04V1338.96C100 1329.17 92.0833 1321.25 82.2917 1321.25ZM51.5 1369.79C49.8333 1372.12 47.5 1373.87 44.7917 1374.87C41.9583 1375.92 38.8333 1376.29 35.4167 1376.29C34.4167 1376.29 33.75 1376.29 33.3333 1376.25C32.9167 1376.21 32.3333 1376.21 31.5417 1376.21V1389.58C31.5833 1389.88 31.375 1390.12 31.0833 1390.17H23C22.6667 1390.17 22.5 1390 22.5 1389.62V1346.75C22.5 1346.46 22.625 1346.29 22.9167 1346.29C23.625 1346.29 24.2917 1346.29 25.25 1346.25C26.25 1346.21 27.2917 1346.21 28.4167 1346.17C29.5417 1346.12 30.75 1346.12 32.0417 1346.08C33.3333 1346.04 34.5833 1346.04 35.8333 1346.04C39.25 1346.04 42.0833 1346.46 44.4167 1347.33C46.5 1348.04 48.4167 1349.21 50 1350.75C51.3333 1352.08 52.375 1353.71 53.0417 1355.5C53.6667 1357.25 54 1359.04 54 1360.92C54 1364.5 53.1667 1367.46 51.5 1369.79ZM81.0417 1386C79.875 1387.67 78.25 1388.96 76.375 1389.71C74.3333 1390.58 71.8333 1391.04 68.8333 1391.04C66.9167 1391.04 65.0417 1390.88 63.1667 1390.5C61.7083 1390.25 60.25 1389.79 58.9167 1389.17C58.625 1389 58.4167 1388.71 58.4583 1388.38V1381.12C58.4583 1381 58.5 1380.83 58.625 1380.75C58.75 1380.67 58.875 1380.71 59 1380.79C60.625 1381.75 62.3333 1382.42 64.1667 1382.83C65.75 1383.25 67.4167 1383.46 69.0833 1383.46C70.6667 1383.46 71.7917 1383.25 72.5417 1382.87C73.2083 1382.58 73.6667 1381.87 73.6667 1381.12C73.6667 1380.54 73.3333 1380 72.6667 1379.46C72 1378.92 70.625 1378.29 68.5833 1377.5C66.4583 1376.75 64.5 1375.75 62.6667 1374.5C61.375 1373.58 60.2917 1372.37 59.5 1370.96C58.8333 1369.62 58.5 1368.17 58.5417 1366.71C58.5417 1364.92 59.0417 1363.21 59.9583 1361.67C61 1360 62.5417 1358.67 64.3333 1357.83C66.2917 1356.83 68.75 1356.37 71.7083 1356.37C73.4167 1356.37 75.1667 1356.5 76.875 1356.75C78.125 1356.92 79.3333 1357.25 80.4583 1357.71C80.625 1357.75 80.7917 1357.92 80.875 1358.08C80.9167 1358.25 80.9583 1358.42 80.9583 1358.58V1365.38C80.9583 1365.54 80.875 1365.71 80.75 1365.79C80.375 1365.87 80.1667 1365.87 80 1365.79C78.75 1365.12 77.4167 1364.67 76 1364.37C74.4583 1364.04 72.9167 1363.83 71.3333 1363.83C70.5 1363.79 69.625 1363.92 68.8333 1364.12C68.2917 1364.25 67.8333 1364.54 67.5417 1364.96C67.3333 1365.29 67.2083 1365.71 67.2083 1366.08C67.2083 1366.46 67.375 1366.83 67.625 1367.17C68 1367.62 68.5 1368 69.0417 1368.29C70 1368.79 71 1369.25 72 1369.67C74.25 1370.42 76.4167 1371.46 78.4167 1372.71C79.7917 1373.58 80.9167 1374.75 81.7083 1376.17C82.375 1377.5 82.7083 1378.96 82.6667 1380.46C82.7083 1382.42 82.125 1384.37 81.0417 1386Z" fill="#D9D9D9"/>
</g>
<defs>
<clipPath id="clip0_778_1810">
<rect width="100" height="100" fill="white" transform="translate(0 1320)"/>
</clipPath>
</defs>
</svg>
