<svg width="100" height="1906" viewBox="0 0 100 1906" fill="none" xmlns="http://www.w3.org/2000/svg">
<path d="M78.5417 1849.29L82.9583 1844.87C86.2083 1841.62 86.2083 1836.33 82.9583 1833.08L77.0833 1827.21C73.8333 1823.96 68.5417 1823.96 65.2917 1827.21L60.875 1831.62L78.5417 1849.29ZM54.9583 1837.5L17.25 1875.21C16.8727 1875.6 16.6634 1876.12 16.6667 1876.67V1891.42C16.6667 1892.58 17.5833 1893.5 18.75 1893.5H33.5C34.0417 1893.5 34.5833 1893.29 34.9583 1892.88L72.6667 1855.17L54.9583 1837.5ZM79.1667 1878.92C79.1667 1888.04 68.5833 1893.5 58.3333 1893.5C56.0417 1893.5 54.1667 1891.62 54.1667 1889.33C54.1667 1887.04 56.0417 1885.17 58.3333 1885.17C64.75 1885.17 70.8333 1882.12 70.8333 1878.92C70.8333 1876.96 68.8333 1875.29 65.7083 1873.92L71.875 1867.75C76.3333 1870.37 79.1667 1873.87 79.1667 1878.92ZM19.0833 1861.62C15.0417 1859.29 12.5 1856.25 12.5 1851.83C12.5 1844.33 20.375 1840.87 27.3333 1837.83C31.625 1835.92 37.5 1833.33 37.5 1831C37.5 1829.29 34.25 1826.83 29.1667 1826.83C23.9167 1826.83 21.6667 1829.37 21.5417 1829.5C20.0833 1831.21 17.4583 1831.42 15.7083 1830C14.8728 1829.31 14.3394 1828.33 14.2226 1827.25C14.1057 1826.18 14.4147 1825.1 15.0833 1824.25C15.5417 1823.67 19.8333 1818.5 29.1667 1818.5C38.5 1818.5 45.8333 1824 45.8333 1831C45.8333 1838.79 37.7917 1842.33 30.6667 1845.46C26.75 1847.17 20.8333 1849.75 20.8333 1851.83C20.8333 1853.12 22.625 1854.33 25.2917 1855.42L19.0833 1861.62Z" fill="#D9D9D9"/>
</svg>
