<svg width="100" height="1118" viewBox="0 0 100 1118" fill="none" xmlns="http://www.w3.org/2000/svg">
<g clip-path="url(#clip0_778_1802)">
<g clip-path="url(#clip1_778_1802)">
<path d="M76.3008 1057.6C81.3924 1054.52 84.7633 1049.22 84.7633 1043.22C84.7633 1033.73 76.3674 1026.02 66.0508 1026.02H33.9508C23.6341 1026.02 15.2383 1033.73 15.2383 1043.22C15.2383 1049.22 18.6091 1054.52 23.7008 1057.6C18.6091 1060.68 15.2383 1065.98 15.2383 1071.98C15.2383 1077.99 18.6091 1083.29 23.7008 1086.37C18.6091 1089.44 15.2383 1094.74 15.2383 1100.75C15.2383 1110.24 23.6758 1117.95 34.0508 1117.95C44.5341 1117.95 53.0674 1110.15 53.0674 1100.56V1084.7C56.3924 1087.49 60.8091 1089.18 65.6466 1089.18H66.0508C76.3674 1089.18 84.7633 1081.47 84.7633 1071.98C84.7633 1065.98 81.3924 1060.68 76.3008 1057.6ZM53.0633 1031.65H66.0508C72.9883 1031.65 78.6341 1036.84 78.6341 1043.22C78.6341 1049.59 72.9883 1054.78 66.0508 1054.78H53.0633V1031.65ZM21.3674 1043.22C21.3674 1036.84 27.0133 1031.65 33.9508 1031.65H46.9383V1054.78H33.9508C27.0133 1054.78 21.3674 1049.59 21.3674 1043.22ZM21.3674 1071.98C21.3674 1065.61 27.0133 1060.42 33.9508 1060.42H46.9383V1083.55H33.8716C26.9716 1083.51 21.3674 1078.34 21.3674 1071.98ZM46.9383 1100.56C46.9383 1107.05 41.1549 1112.32 34.0508 1112.32C27.0591 1112.32 21.3674 1107.13 21.3674 1100.75C21.3674 1094.37 27.0133 1089.18 33.9508 1089.18H46.9383V1100.56ZM66.0508 1083.55H65.6466C58.7091 1083.55 53.0674 1078.36 53.0674 1071.98C53.0674 1065.61 58.7091 1060.42 65.6466 1060.42H66.0508C72.9883 1060.42 78.6341 1065.61 78.6341 1071.98C78.6341 1078.36 72.9883 1083.55 66.0508 1083.55Z" fill="#D9D9D9"/>
</g>
</g>
<defs>
<clipPath id="clip0_778_1802">
<rect width="100" height="1117.95" fill="white"/>
</clipPath>
<clipPath id="clip1_778_1802">
<rect width="100" height="91.9369" fill="white" transform="translate(0 1026.02)"/>
</clipPath>
</defs>
</svg>
