<svg width="838" height="125" viewBox="0 0 838 125" fill="none" xmlns="http://www.w3.org/2000/svg">
<g clip-path="url(#clip0_731_500)">
<path d="M0.69575 124.176L0.51975 121.36C0.51975 119.952 0.34375 100.768 0.34375 78.7676C0.34375 34.9436 0.34375 36.1756 2.10375 30.3676C8.26375 12.2396 25.5117 0.799599 44.5197 0.799599C65.1117 0.799599 80.2477 12.7676 84.4717 33.5356C85.5277 38.2876 85.5277 47.0876 84.4717 51.4876C80.5997 69.2636 67.3997 81.2316 49.2717 81.2316C34.8397 81.2316 17.5917 73.4876 13.5437 58.5276L12.8398 56.4156L13.0157 58.1756C13.8958 65.2156 19.7038 73.1356 25.3358 77.3596C26.3918 78.0636 28.1517 79.1196 29.5597 79.8236C38.7118 84.2236 43.1117 94.2556 43.1117 103.936C43.1117 107.808 42.9357 108.512 42.4077 110.8C40.4717 116.432 37.8317 119.6 32.7277 122.064C29.3837 123.824 28.3278 123.824 13.8958 124L0.69575 124.176ZM17.9438 44.2716V45.3276C17.9438 55.7116 24.9837 68.0316 35.8957 69.6156C38.3597 69.9676 43.2877 69.7916 45.7517 69.0876C54.0237 66.9756 60.1837 61.5196 62.4717 54.3036C63.5277 51.3116 63.5277 47.0876 62.6477 43.7436C60.5357 35.4716 53.3197 30.3676 45.9277 31.5996C40.8237 32.6556 38.3597 35.9996 35.5437 40.2236C32.1997 44.9756 29.5597 46.9116 25.6877 47.2636C23.2237 47.4396 20.0557 46.5596 18.8237 45.3276L17.9438 44.2716ZM133.752 0.799599C154.696 1.5036 168.072 13.6476 172.472 33.5356C173 35.9996 173 37.4076 173.176 42.5116C173.176 60.8156 162.616 77.1836 143.784 80.8796C141.144 81.2316 132.872 81.2316 130.408 80.8796C129.352 80.7036 128.12 80.3516 127.768 80.3516C127.24 80.1756 127.24 80.3516 127.944 80.7036C129.528 81.2316 133.224 82.1116 136.392 82.4636C143.08 83.3436 145.896 84.0476 149.768 85.9836C158.92 90.5596 165.608 99.8876 167.544 110.976C168.248 114.672 168.248 122.24 167.544 123.296L167.192 124H157.336C146.6 124 145.544 123.824 142.2 122.064C135.864 118.192 134.456 112.032 133.928 105.168C133.576 95.6636 129.704 84.9276 120.376 80.7036C117.208 79.1196 115.8 78.7676 118.264 80.1756C124.072 83.3436 128.472 89.5036 130.408 97.0716C131.288 100.416 131.288 106.928 130.584 109.568C128.648 116.608 124.072 121.36 117.56 123.12C115.448 123.824 114.568 123.824 101.896 123.824L88.6957 124L88.5197 121.008C88.3437 119.248 88.3438 99.5356 88.3438 77.1836C88.5198 36.5276 88.5197 36.1756 89.0477 33.7116C93.2717 16.4636 107.528 4.1436 124.952 1.32761C127.944 0.799599 129.176 0.623601 133.752 0.799599ZM133.224 69.2636C142.552 67.1516 151.176 59.0556 151.176 49.0236C151.176 38.1116 143.432 30.0156 134.104 31.4236C130.408 31.9516 127.24 34.4156 123.72 39.5196C121.256 43.5676 117.912 47.0876 112.808 47.0876C110.872 47.0876 108.936 46.5596 107.352 45.5036L105.768 44.4476L105.944 46.7356C106.824 56.7676 113.16 68.0316 123.896 69.6156C126.008 69.9676 130.76 69.7916 133.224 69.2636ZM244.959 4.8476C264.143 12.7676 275.935 32.6556 279.103 52.5436C279.807 57.2956 279.807 69.0876 279.103 73.6636C275.055 98.8316 259.391 118.896 233.519 123.824C231.407 124 224.367 124.176 222.431 123.824C202.367 121.712 186.879 106.048 179.487 88.0956C173.855 74.1916 172.975 57.6476 177.199 42.5116C182.831 23.1516 197.615 5.19961 218.383 1.6796C219.791 1.5036 222.959 1.32761 225.599 1.15161C232.815 0.799599 238.095 1.85561 244.959 4.8476ZM249.887 19.9836C251.119 20.6876 251.999 21.0396 252.175 21.0396C253.055 21.0396 249.183 18.3996 246.015 16.8156C241.439 14.5276 236.687 13.4716 231.055 13.4716C214.335 13.4716 199.727 24.2076 193.391 39.5196C189.695 47.9676 189.167 57.1196 191.983 65.5676C194.975 74.3676 202.191 81.0556 210.463 82.6396C213.631 83.1676 219.263 83.1676 222.079 82.4636C228.943 80.8796 234.047 76.8316 236.159 71.0236C238.447 64.8636 237.567 58.8796 232.991 50.6076C229.119 43.5676 228.063 40.7516 228.063 35.4716C228.063 26.8476 232.639 18.2236 242.319 18.2236C245.487 18.2236 247.423 18.5756 249.887 19.9836ZM374.41 55.1836C374.762 84.5756 374.762 83.6956 372.65 90.2076C368.074 103.408 357.162 117.312 343.434 121.712C337.274 123.648 338.682 123.648 311.93 123.648C298.554 123.824 287.29 123.824 286.762 123.648C285.706 123.472 285.53 123.12 285.354 120.832C284.474 114.672 285.706 107.808 288.698 102.528C294.682 91.6156 306.65 88.6236 318.09 88.2716C329.706 88.2716 343.258 85.4556 350.298 75.2476C351.882 72.7836 352.41 71.5516 351.002 73.4876C344.666 81.9356 330.762 85.2796 320.554 85.2796C301.898 85.2796 286.586 76.1276 282.362 56.5916C281.482 52.5436 281.13 47.0876 281.482 42.5116C282.538 29.3116 287.642 16.2876 296.97 3.79161L299.258 0.623601H318.618C336.57 0.623601 337.802 0.623601 337.978 1.15161C338.682 2.5596 339.034 5.0236 339.034 9.42361C339.034 23.8556 330.938 35.8236 318.442 42.8636C316.33 44.2716 312.106 47.9676 310.522 50.4316C305.77 57.1196 304.89 64.5116 308.41 69.6156C310.17 72.2556 312.458 73.8396 315.978 74.7196C318.09 75.4236 318.97 75.4236 323.194 75.4236C328.474 75.4236 330.058 75.0716 334.634 73.3116C343.434 69.9676 350.474 62.0476 351.53 54.1276C352.058 50.6076 351.354 47.0876 348.714 39.1676C345.018 27.5516 344.49 21.3916 346.778 14.1756C350.298 4.1436 359.626 1.32761 369.306 0.975596L374.234 0.799599V14.8796C374.234 22.4476 374.41 40.5756 374.41 55.1836ZM383.339 123.648L381.755 123.472V62.2236C381.931 28.7836 382.107 0.975596 382.107 0.975596C382.283 0.799599 402.523 0.799599 427.339 0.623601H472.395L472.747 1.5036C473.275 3.0876 473.099 11.1836 472.571 13.9996C469.931 26.3196 463.243 36.7036 449.339 36.7036C439.835 36.7036 434.379 33.7116 426.459 28.6076C419.595 23.8556 416.251 22.4476 413.435 23.1516C406.747 24.7356 405.867 33.1836 405.691 38.6396C405.515 46.9116 405.515 68.0316 405.691 68.2076C406.043 68.5596 406.923 67.5036 408.507 64.3356C409.387 62.7516 410.795 60.6396 411.323 59.7596C416.955 52.3676 424.523 49.0236 433.499 49.0236C439.131 49.0236 440.363 49.1996 443.531 50.9596C447.755 53.4236 450.219 57.9996 450.571 63.6316C450.923 67.8556 449.691 71.5516 447.227 74.3676C445.643 76.1276 444.235 77.1836 442.123 77.7116C440.011 78.0636 438.603 78.0636 434.907 77.0076C431.915 76.1276 429.275 75.7756 426.987 75.7756C420.299 75.7756 414.491 79.4716 410.795 84.9276C409.211 87.0396 407.099 90.9116 407.275 91.0876C407.275 91.0876 407.979 90.7356 408.859 90.2076C417.307 83.1676 428.923 79.6476 439.659 79.6476C446.347 79.6476 448.635 79.9996 452.859 81.4076C465.883 85.9836 470.635 98.8316 472.043 111.328C472.395 115.2 472.395 121.888 472.043 122.944L471.691 124L420.299 123.648L417.659 122.416C414.667 121.008 412.907 119.424 411.147 116.96C408.683 113.088 407.451 109.216 407.451 104.64C407.451 101.824 407.979 99.8876 409.211 97.4236C410.619 94.6076 410.267 93.7276 408.683 95.8396C405.515 100.24 404.811 104.464 406.043 112.208C406.571 115.376 406.571 116.08 406.395 117.488C405.867 119.424 404.811 121.184 403.403 122.24C401.467 123.648 400.059 123.824 392.139 123.824C388.091 123.824 384.219 123.648 383.339 123.648ZM514.062 123.648C485.022 119.776 468.83 94.2556 468.126 66.7996C467.774 56.2396 469.182 48.1436 472.878 38.2876C479.39 20.1596 496.286 2.5596 516.35 0.975596C517.582 0.799599 519.166 0.623601 519.518 0.623601C520.926 0.447603 529.022 1.32761 531.134 1.6796C543.63 5.90361 555.07 14.5276 555.774 28.7836C556.126 34.5916 554.542 38.9916 550.67 42.8636C547.15 46.5596 543.102 48.1436 537.822 48.1436C529.55 48.1436 522.51 42.1596 521.454 34.0636C521.102 30.7196 521.454 29.1356 523.214 26.3196C524.974 24.0316 526.558 22.7996 529.198 21.9196C531.134 21.2156 533.598 21.2156 535.886 21.7436C537.47 22.2716 536.238 21.2156 534.126 20.3356C530.43 18.9276 525.502 18.2236 520.222 18.2236C511.95 18.2236 502.974 19.9836 498.046 23.3276C494.526 25.6156 491.534 30.1916 489.774 36.5276C486.606 48.1436 486.606 61.5196 490.126 71.9036C493.646 81.9356 497.518 84.0476 508.43 84.0476C513.71 84.0476 518.638 82.9916 522.51 81.4076C527.614 78.9436 532.894 77.8876 537.47 78.2396C549.262 78.9436 555.246 87.0396 555.246 97.9516C555.246 101.472 555.07 102.352 554.542 103.936C551.726 111.856 545.214 118.544 537.294 121.536C531.486 123.824 521.454 124.704 514.062 123.648ZM649.017 15.0556C650.073 18.0476 650.249 22.2716 649.369 25.6156C647.081 35.4716 638.457 42.8636 628.425 42.8636C621.913 42.8636 614.521 39.6956 611.705 33.7116C610.297 30.8956 609.945 27.0236 610.649 23.5036C611.177 21.5676 612.937 17.5196 613.993 15.9356L614.697 14.8796L613.817 15.9356C611.529 18.2236 607.481 28.4316 606.249 34.4156C604.489 42.5116 604.665 51.3116 606.425 59.5836C608.009 66.4476 611.705 74.5436 615.753 80.5276C620.857 88.0956 621.561 89.3276 622.441 91.4396C624.201 95.6636 624.729 97.5996 624.729 102.528C624.729 106.576 624.553 107.104 623.849 109.216C623.497 110.624 622.617 112.208 622.265 113.088C618.921 117.84 609.945 121.888 599.561 123.296C595.513 123.824 584.073 124.176 584.073 123.824C584.073 123.472 584.425 122.768 585.129 121.712C587.769 117.84 589.353 112.032 589.705 105.52C590.057 98.3036 589.001 93.7276 585.657 86.5116C580.905 76.4796 578.441 66.9756 578.089 56.5916C577.913 45.8556 580.025 37.0556 585.129 28.2556C587.945 23.3276 593.225 17.1676 596.745 14.8796C597.625 14.3516 598.153 13.6476 598.153 13.6476C598.153 13.6476 597.273 14.1756 595.865 14.8796C593.049 16.2876 590.585 18.3996 585.129 23.5036C583.017 25.4396 580.553 27.7276 579.673 28.4316C575.977 31.5996 570.521 33.8876 566.121 34.2396C563.657 34.4156 559.257 33.7116 557.145 32.8316L555.913 32.3036V1.15161L559.257 0.975596C561.193 0.799599 578.617 0.799599 598.153 0.975596C636.697 1.15161 635.113 0.975596 638.633 2.91161C643.385 5.19961 647.257 9.7756 649.017 15.0556ZM717.616 4.8476C736.8 12.7676 748.592 32.6556 751.76 52.5436C752.464 57.2956 752.464 69.0876 751.76 73.6636C747.712 98.8316 732.048 118.896 706.176 123.824C704.064 124 697.024 124.176 695.088 123.824C675.024 121.712 659.536 106.048 652.144 88.0956C646.511 74.1916 645.631 57.6476 649.856 42.5116C655.488 23.1516 670.272 5.19961 691.04 1.6796C692.448 1.5036 695.616 1.32761 698.256 1.15161C705.472 0.799599 710.752 1.85561 717.616 4.8476ZM722.544 19.9836C723.776 20.6876 724.656 21.0396 724.832 21.0396C725.712 21.0396 721.84 18.3996 718.672 16.8156C714.096 14.5276 709.344 13.4716 703.712 13.4716C686.992 13.4716 672.384 24.2076 666.048 39.5196C662.352 47.9676 661.824 57.1196 664.64 65.5676C667.632 74.3676 674.848 81.0556 683.12 82.6396C686.288 83.1676 691.919 83.1676 694.736 82.4636C701.6 80.8796 706.704 76.8316 708.816 71.0236C711.104 64.8636 710.224 58.8796 705.648 50.6076C701.776 43.5676 700.72 40.7516 700.72 35.4716C700.72 26.8476 705.296 18.2236 714.976 18.2236C718.144 18.2236 720.08 18.5756 722.544 19.9836ZM791.098 22.6236C793.034 16.8156 798.138 12.4156 805.178 10.4796L806.586 10.1276H805.178C800.954 9.95161 793.914 13.2956 789.866 17.1676C783.178 23.5036 781.418 35.9996 785.994 44.9756C791.802 56.7676 804.298 62.3996 816.442 64.8636C827.354 66.7996 833.866 72.0796 836.154 81.0556C837.386 85.9836 837.738 91.2636 836.858 95.8396C834.042 113.264 818.906 121.888 802.362 123.648C799.546 124 792.858 124 790.746 123.824C782.474 122.768 776.49 121.008 771.21 117.84C761.882 112.384 757.482 101.824 761.002 93.3756C763.994 85.9836 771.562 80.3516 781.77 78.2396C785.114 77.5356 790.042 77.0076 791.45 77.1836C791.802 77.1836 793.034 77.3596 794.09 77.5356C800.954 77.5356 810.458 83.8716 815.034 88.2716C816.442 89.5036 817.498 90.3836 817.498 90.3836C817.498 89.8556 816.442 87.9196 815.386 86.5116C811.866 81.9356 803.77 77.3596 795.498 75.4236C782.122 72.0796 771.21 66.4476 763.29 59.0556C755.546 51.4876 752.026 42.5116 753.434 33.1836C756.954 10.8316 783.706 0.799599 803.594 0.799599C810.986 0.799599 817.85 2.03161 823.13 4.6716C830.874 8.54361 837.21 15.2316 837.562 24.2076C837.738 28.0796 837.386 30.0156 835.45 33.8876C834.218 36.1756 833.69 37.2316 831.402 39.3436C829.114 41.8076 828.41 42.1596 825.77 43.5676C821.37 45.5036 819.962 45.8556 814.682 46.0316C811.162 46.2076 809.754 46.2076 807.818 45.6796C799.546 44.0956 793.386 39.1676 790.922 32.4796C790.042 29.4876 790.042 25.6156 791.098 22.6236Z" fill="#303030"/>
</g>
<defs>
<clipPath id="clip0_731_500">
<rect width="838" height="125" fill="white"/>
</clipPath>
</defs>
</svg>
