<svg width="242" height="53" viewBox="0 0 242 53" fill="none" xmlns="http://www.w3.org/2000/svg">
<path d="M30.8608 1.47662H41.2763V51.7529H30.8608V1.47662ZM10.4155 51.7529H0V1.47662H10.4155V51.7529ZM31.6323 31.1397H9.64399V21.2997H31.6323V31.1397ZM61.5041 21.7306H83.171V30.7806H61.5041V21.7306ZM62.2756 42.4159H86.7714V51.7529H51.9244V1.47662H85.9356V10.8136H62.2756V42.4159ZM95.0587 51.7529V1.47662H103.674L130.227 37.6756H126.048V1.47662H136.335V51.7529H127.784L101.167 15.5539H105.346V51.7529H95.0587ZM141.069 51.7529L161.128 1.47662H171.415L191.539 51.7529H180.609L164.15 7.36609H168.265L151.741 51.7529H141.069ZM151.098 40.9795L153.863 32.1452H177.008L179.837 40.9795H151.098ZM217.44 52.6147C213.882 52.6147 210.581 51.9683 207.539 50.6755C204.538 49.3827 201.923 47.5627 199.695 45.217C197.509 42.8698 195.794 40.1176 194.552 36.9574C193.351 33.7972 192.751 30.3497 192.751 26.6149C192.751 22.8798 193.351 19.4323 194.552 16.2721C195.794 13.1119 197.53 10.3587 199.759 8.01249C201.988 5.66632 204.602 3.84677 207.603 2.55396C210.603 1.26115 213.86 0.614746 217.376 0.614746C220.932 0.614746 224.191 1.26115 227.148 2.55396C230.148 3.84677 232.742 5.66632 234.928 8.01249C237.156 10.3587 238.892 13.1119 240.135 16.2721C241.378 19.3845 242 22.832 242 26.6149C242 30.3497 241.378 33.8202 240.135 37.0292C238.892 40.1894 237.156 42.9417 234.928 45.2888C232.742 47.5872 230.148 49.3827 227.148 50.6755C224.191 51.9683 220.954 52.6147 217.44 52.6147ZM217.376 42.7032C219.389 42.7032 221.233 42.3197 222.905 41.554C224.619 40.787 226.12 39.6866 227.405 38.2502C228.691 36.8137 229.676 35.113 230.363 33.1508C231.091 31.1871 231.456 29.008 231.456 26.6149C231.456 24.2203 231.091 22.0419 230.363 20.0787C229.676 18.1155 228.691 16.4158 227.405 14.9793C226.162 13.5429 224.683 12.4415 222.969 11.6755C221.254 10.9094 219.389 10.5263 217.376 10.5263C215.361 10.5263 213.496 10.9094 211.782 11.6755C210.111 12.4415 208.632 13.5429 207.346 14.9793C206.06 16.4158 205.052 18.1155 204.324 20.0787C203.637 22.0419 203.295 24.2203 203.295 26.6149C203.295 28.9606 203.637 31.1397 204.324 33.1508C205.052 35.113 206.038 36.8137 207.282 38.2502C208.567 39.6866 210.067 40.787 211.782 41.554C213.496 42.3197 215.361 42.7032 217.376 42.7032Z" fill="#FAFAFA"/>
</svg>
