<svg width="242" height="68" viewBox="0 0 242 68" fill="none" xmlns="http://www.w3.org/2000/svg">
<path d="M0.479778 54.6119C0.383822 50.6629 0.287867 43.3428 0.0959556 15.0255L0 0.192632L3.64631 0.288953C25.908 0.866855 46.1546 11.3654 50.1848 35.0595C50.6645 37.8527 50.7605 43.6317 50.2807 46.4249C49.2252 53.3598 46.2506 59.3314 41.9326 63.3768C38.958 66.17 33.3925 67.8074 28.6907 67.3258C20.5345 66.4589 14.6812 60.6799 14.6812 52.4929C14.6812 50.2776 14.8731 49.2181 15.4488 48.0623L15.8327 47.4844L15.2569 48.1586C14.4893 49.0255 13.9136 50.085 13.6257 51.5297C13.3378 53.1671 13.5297 54.5156 14.4893 57.2125C15.5448 60.3909 15.5448 62.221 14.4893 64.4363C13.8176 65.6884 12.954 66.5552 11.8985 67.1331C11.1308 67.4221 11.0349 67.5184 5.85329 67.5184H0.479778V63.0878C0.479778 60.5836 0.479778 56.8272 0.479778 54.6119ZM10.747 33.5184C10.6511 34.9632 10.5551 36.7932 10.6511 37.5637C10.6511 38.238 10.6511 39.779 10.6511 40.8385C10.747 41.9943 10.747 42.7649 10.843 42.7649C10.9389 42.7649 11.0349 42.6686 11.0349 42.4759C11.0349 41.9943 12.2823 39.5864 13.05 38.9122C14.1055 37.7564 14.8731 37.4674 16.4084 37.4674C17.4639 37.4674 17.7518 37.4674 18.5194 37.949C20.1507 38.7195 21.3981 40.2606 22.7415 42.7649C24.2768 45.7507 27.9231 48.8329 31.3775 48.8329C32.2411 48.8329 33.1047 48.6402 33.8723 48.255H33.7764C35.5995 47.2918 37.1348 45.1728 37.9025 42.7649C39.5337 37.3711 37.9984 28.9915 34.4481 22.9235C30.8017 17.0482 26.3878 13.8697 21.686 13.7734C15.2569 13.7734 11.3228 20.9972 10.747 33.5184ZM70.4059 67.3258C58.6033 67.3258 53.0379 58.4646 51.5986 47.3881C51.3107 44.7875 51.3107 37.0822 51.6945 34.3853C52.3662 29.762 53.5177 25.2351 54.8611 22.7309C61.8658 9.53541 72.0371 2.60057 87.0062 0.38527C89.0213 0 89.9808 0 94.8745 0C97.8492 0 100.44 -7.45058e-09 100.44 0.0963159C100.536 0.192632 100.44 15.2181 100.344 33.5184C100.248 64.1473 100.152 66.9405 99.9602 67.2295C99.6723 67.4221 99.3845 67.5184 96.7937 67.4221C95.2584 67.4221 93.2433 67.3258 92.2837 67.3258H92.3797C91.4201 67.2295 90.3646 67.0368 89.8849 66.9405C88.5415 66.5552 87.39 65.5921 86.9102 64.4363C86.5264 63.6657 86.5264 63.3768 86.5264 62.0283C86.6224 60.7762 86.8143 60.0057 87.2941 58.272C88.3496 54.8045 88.5415 52.204 87.6779 50.1813C84.5113 42.2833 75.0117 36.3116 66.6636 36.3116C65.0324 36.3116 63.4971 36.5042 61.9618 36.9858C60.5224 37.3711 59.1791 37.949 59.371 38.1416C59.371 38.1416 59.9467 37.949 60.6184 37.7564C62.5375 37.1785 63.8809 36.9858 66.6636 37.1785C74.8198 37.3711 83.072 41.8017 85.4709 50.085C85.9507 51.7224 85.9507 54.9008 85.4709 56.5382C83.6477 63.5694 77.3147 67.3258 70.4059 67.3258ZM67.911 23.2125C67.5272 24.7535 67.5272 25.4278 67.911 26.4873C68.4868 28.0283 69.8301 28.9915 73.1886 30.4363C78.0823 32.4589 82.5922 35.7337 85.183 39.2011C86.5264 40.9348 88.8293 44.8839 89.2132 45.9433C89.3091 46.3286 89.501 46.5212 89.501 46.5212C89.597 46.5212 89.8849 45.847 90.1727 44.9802C90.7485 43.0538 91.3242 40.3569 91.708 37.6601C92.0918 34.8669 92.0918 26.9688 91.708 23.983C91.1323 19.8414 89.2132 7.99434 83.3599 7.99434C76.547 7.99434 69.2544 17.2408 67.911 23.2125ZM127.597 66.3626C115.027 61.0652 105.527 48.5439 103.416 34.3853C102.936 31.3994 102.936 26.8725 103.32 24.1756C105.143 10.8839 114.739 0.288953 128.556 0.288953C134.026 0.288953 139.399 1.92635 141.415 7.70538C142.566 11.1728 142.278 15.2181 140.551 18.6856C138.152 23.5977 134.986 25.1388 129.9 25.3314C124.334 25.6204 118.001 26.3909 114.547 31.4957C113.108 33.8074 113.012 37.3711 114.451 41.8017C117.426 51.0482 125.486 59.2351 133.738 61.3541C135.177 61.6431 137.384 61.932 138.344 61.8357L139.112 61.6431L137.96 61.1615C130.092 57.7904 124.91 50.3739 124.91 42.5722C124.91 34.0963 129.612 30.1473 136.809 26.3909C142.182 23.4051 145.733 20.1303 147.748 14.0623C148.323 12.2323 148.419 9.53541 147.844 7.70538C147.172 5.29745 145.733 2.88952 144.005 1.25213C143.526 0.77054 143.046 0.288953 143.142 0.192632C143.238 0.0963159 145.924 0 150.626 0C157.535 0 158.015 0.0963159 158.111 0.38527C158.303 0.866855 158.207 5.77904 157.919 7.51275C157.055 13.1955 154.944 19.3598 152.641 22.9235C151.586 24.6572 150.818 25.5241 148.611 27.6431C144.485 31.5921 142.374 34.3853 140.839 37.5637C137.48 44.3059 137.672 51.5297 141.223 57.3088C142.662 59.6204 148.227 65.1105 150.434 66.4589C151.106 66.8442 151.106 66.9405 151.01 67.2295C150.818 67.5184 150.53 67.5184 143.238 67.5184C139.016 67.5184 134.986 67.5184 134.122 67.5184C133.258 67.6147 132.395 67.6147 132.107 67.5184V67.6147C130.38 67.2295 128.94 66.9405 127.597 66.3626ZM174.451 34.9632C171.285 37.4674 169.653 39.6827 169.557 41.7054C169.461 42.4759 169.557 42.7649 169.845 43.3428C171.476 46.2323 176.85 48.5439 179.729 49.5071C183.951 50.9518 187.693 53.2635 187.693 58.1756C187.693 60.8725 186.925 63.8584 185.678 66.3626L185.102 67.5184H159.578L159.674 50.4703C159.77 41.1275 159.77 31.3031 159.77 28.7025C159.77 24.0793 159.77 23.8867 160.058 23.5977C160.25 23.4051 160.538 23.3088 160.729 23.3088C160.825 23.3088 161.401 23.6941 162.073 24.3683C165.047 27.1615 168.598 28.7025 172.052 28.7025C175.123 28.7989 176.946 28.1246 178.385 26.4873C178.865 26.0057 179.249 25.6204 179.153 25.5241C179.153 25.5241 178.769 25.7167 178.289 26.0057C176.754 27.1615 175.219 27.7394 173.012 27.8357C171.093 28.0283 168.694 27.3541 166.391 26.102C163.8 24.6572 161.113 21.0935 160.058 17.8187C159.77 16.7592 159.77 16.2776 159.77 14.0623C159.77 11.6544 159.77 11.3654 160.154 10.2096C161.785 5.5864 165.143 2.2153 169.749 0.77054C171.668 0.192632 174.355 -0.0963161 176.37 0.192632C181.168 0.866855 185.294 3.85269 187.309 8.09065C188.269 10.306 188.748 12.7139 188.461 15.2181C187.789 23.1161 180.4 30.3399 174.451 34.9632ZM191.547 54.6119C191.452 50.6629 191.356 43.3428 191.164 15.0255L191.068 0.192632L194.715 0.288953C216.977 0.866855 237.223 11.3654 241.253 35.0595C241.733 37.8527 241.829 43.6317 241.349 46.4249C240.294 53.3598 237.319 59.3314 233.001 63.3768C230.027 66.17 224.461 67.8074 219.759 67.3258C211.603 66.4589 205.75 60.6799 205.75 52.4929C205.75 50.2776 205.942 49.2181 206.518 48.0623L206.901 47.4844L206.326 48.1586C205.558 49.0255 204.982 50.085 204.694 51.5297C204.406 53.1671 204.598 54.5156 205.558 57.2125C206.613 60.3909 206.613 62.221 205.558 64.4363C204.886 65.6884 204.023 66.5552 202.967 67.1331C202.2 67.4221 202.104 67.5184 196.922 67.5184H191.547V63.0878C191.547 60.5836 191.547 56.8272 191.547 54.6119ZM201.816 33.5184C201.72 34.9632 201.624 36.7932 201.72 37.5637C201.72 38.238 201.72 39.779 201.72 40.8385C201.816 41.9943 201.816 42.7649 201.912 42.7649C202.008 42.7649 202.104 42.6686 202.104 42.4759C202.104 41.9943 203.351 39.5864 204.119 38.9122C205.174 37.7564 205.942 37.4674 207.477 37.4674C208.533 37.4674 208.82 37.4674 209.588 37.949C211.219 38.7195 212.467 40.2606 213.81 42.7649C215.345 45.7507 218.992 48.8329 222.446 48.8329C223.31 48.8329 224.173 48.6402 224.941 48.255H224.845C226.668 47.2918 228.203 45.1728 228.971 42.7649C230.602 37.3711 229.067 28.9915 225.517 22.9235C221.87 17.0482 217.456 13.8697 212.755 13.7734C206.326 13.7734 202.391 20.9972 201.816 33.5184Z" fill="#FAFAFA"/>
</svg>
